<mxfile host="app.diagrams.net" modified="2024-06-19T00:02:19.511Z" agent="Mozilla/5.0 (Windows NT 10.0; Win64; x64) AppleWebKit/537.36 (KHTML, like Gecko) Chrome/125.0.0.0 Safari/537.36" version="24.5.5" etag="T32ZSMzxD9ODouVF2nIa" type="github">
  <diagram name="Page-1" id="Nw_x7jl9ZZ_PYrK0kHJl">
    <mxGraphModel>
      <root>
        <mxCell id="0" />
        <mxCell id="1" parent="0" />
      </root>
    </mxGraphModel>
  </diagram>
</mxfile>
